<?xml version="1.0" encoding="UTF-8"?>
<svg version="1.1" xmlns="http://www.w3.org/2000/svg" width="600" height="600">
<path d="M0 0 C198 0 396 0 600 0 C600 198 600 396 600 600 C402 600 204 600 0 600 C0 402 0 204 0 0 Z " fill="#EBEBEB" transform="translate(0,0)"/>
<path d="M0 0 C0.6379248 0.20399414 1.27584961 0.40798828 1.93310547 0.61816406 C17.80487577 5.77977646 31.97932182 14.30507315 42 28 C42 28.66 42 29.32 42 30 C31.88906074 35.98521117 22.56103774 39.76548006 11 42 C10.1855542 42.17225098 9.3711084 42.34450195 8.53198242 42.52197266 C1.2888587 43.97624634 -5.81278919 44.41762676 -13.1875 44.625 C-14.33025391 44.66367187 -15.47300781 44.70234375 -16.65039062 44.7421875 C-19.43344445 44.83534411 -22.21651022 44.92115849 -25 45 C-24.56244385 45.40726318 -24.1248877 45.81452637 -23.67407227 46.23413086 C-16.32200774 53.08375438 -8.9940772 59.93011138 -1.94140625 67.08984375 C0.61355877 69.60368258 3.29825735 71.92986861 6.05859375 74.21484375 C8 76 8 76 9.78515625 78.31640625 C11.75008278 80.78195101 13.24300524 82.45173693 16 84 C19.66521746 83.80971677 22.82607813 82.96089116 26.35546875 81.96484375 C37.72548337 78.95477557 49.84523362 81.06442508 60.08203125 86.6953125 C70.56337594 93.77846473 76.8934537 103.77909317 80 116 C81.68518991 129.00199371 78.27429934 140.41853069 70.65234375 151.0078125 C65.18656091 157.59776345 58.84893989 161.70344525 51 165 C49.89785156 165.48146484 49.89785156 165.48146484 48.7734375 165.97265625 C36.77584448 170.40475676 22.49059613 169.16134974 11 164 C9.66041192 163.34599235 8.32459646 162.68386143 7 162 C6.55011719 162.44730469 6.10023438 162.89460937 5.63671875 163.35546875 C-5.95585026 174.25108972 -19.42082442 176.69814852 -34.80859375 176.375 C-45.43150342 175.83993709 -53.21182774 170.8976642 -61 164 C-61.60328125 163.52433594 -62.2065625 163.04867187 -62.828125 162.55859375 C-69.7099211 156.62226964 -75.18333716 145.84682555 -77 137 C-77.6378018 125.09027786 -77.9609004 115.40244609 -70 105.875 C-64.12188509 99.70874221 -57.09542784 94.78782945 -49 92 C-48.01 92 -47.02 92 -46 92 C-49.51446247 79.3665724 -53.64009788 67.31261262 -58.96777344 55.32910156 C-59.99781253 53.00493578 -61.00498149 50.6719554 -62.0078125 48.3359375 C-66.48138355 37.9906676 -71.36513756 27.93902922 -77.05273438 18.19677734 C-78.99307984 14.87290459 -80.68382608 11.61947829 -82 8 C-56.33884422 -1.7974078 -27.1468306 -8.94802595 0 0 Z " fill="#BC1F35" transform="translate(301,213)"/>
<path d="M0 0 C0.6379248 0.20399414 1.27584961 0.40798828 1.93310547 0.61816406 C17.80487577 5.77977646 31.97932182 14.30507315 42 28 C42 28.66 42 29.32 42 30 C31.88497815 35.98762788 22.56131037 39.75348945 11 42 C10.19280518 42.17732666 9.38561035 42.35465332 8.55395508 42.53735352 C1.06057676 44.08499567 -6.17841658 44.26750418 -13.8125 44.1875 C-15.59430664 44.1865332 -15.59430664 44.1865332 -17.41210938 44.18554688 C-22.74166965 44.158645 -27.74862478 43.98172562 -33 43 C-28.62291435 48.29857736 -23.88002372 53.17072287 -19 58 C-14.72528535 62.23513912 -10.53652884 66.47170701 -6.6484375 71.0703125 C-4.59363607 73.47569617 -2.45044926 75.79332071 -0.3125 78.125 C2.82612441 81.5956973 5.57892838 84.99996863 8 89 C6.02 90.65 4.04 92.3 2 94 C1.443125 93.73445313 0.88625 93.46890625 0.3125 93.1953125 C-13.08099927 86.99629426 -25.49897613 87.34274013 -40 89 C-40 89.66 -40 90.32 -40 91 C-41.98 91 -43.96 91 -46 91 C-46.20455811 90.33395752 -46.40911621 89.66791504 -46.61987305 88.98168945 C-54.26986203 64.37733124 -63.95021736 40.51488337 -77.03076172 18.24511719 C-78.97868802 14.90607154 -80.67813062 11.6351408 -82 8 C-56.33884422 -1.7974078 -27.1468306 -8.94802595 0 0 Z " fill="#94B96D" transform="translate(301,213)"/>
<path d="M0 0 C9.1313969 7.2797021 14.8674063 18.60096405 16.35546875 30.08203125 C16.82965482 42.52621166 12.83285933 53.78041782 4.875 63.375 C-0.32487941 68.92303548 -6.14848513 72.44486376 -13.125 75.375 C-13.85976563 75.69597656 -14.59453125 76.01695312 -15.3515625 76.34765625 C-26.49324063 80.46356827 -39.82212859 79.54563797 -50.83984375 75.640625 C-53.38866447 74.22897045 -54.57313342 72.81291581 -56.125 70.375 C-55.5475 69.75625 -54.97 69.1375 -54.375 68.5 C-49.66842777 61.96309412 -47.7599923 54.81265088 -46.6171875 46.91796875 C-45.32631394 40.24845534 -45.32631394 40.24845534 -42.25 38.01171875 C-41.54875 37.69847656 -40.8475 37.38523437 -40.125 37.0625 C-39.42375 36.73636719 -38.7225 36.41023438 -38 36.07421875 C-36.125 35.375 -36.125 35.375 -34.125 35.375 C-33.91875 34.818125 -33.7125 34.26125 -33.5 33.6875 C-32.125 31.375 -32.125 31.375 -29.1875 29.1875 C-25.27072743 26.113456 -24.1390521 22.1250335 -23.125 17.375 C-23.125 16.385 -23.125 15.395 -23.125 14.375 C-26.41414468 17.44486837 -28.31423457 20.09011562 -29.8125 24.3125 C-32.19047639 28.04932004 -36.10374926 30.7899011 -40.3515625 32.01953125 C-40.93679688 32.13683594 -41.52203125 32.25414062 -42.125 32.375 C-43.115 28.91 -43.115 28.91 -44.125 25.375 C-38.47975578 19.57294344 -38.47975578 19.57294344 -35.125 17.375 C-34.465 17.375 -33.805 17.375 -33.125 17.375 C-32.795 15.065 -32.465 12.755 -32.125 10.375 C-32.455 10.705 -32.785 11.035 -33.125 11.375 C-34.45094105 11.73662029 -35.78438457 12.07228039 -37.125 12.375 C-37.125 8.0292293 -36.76297483 6.71643479 -34.125 3.375 C-31.375 2.1875 -31.375 2.1875 -28.125 1.375 C-26.83224023 1.00378585 -25.54055539 0.62880675 -24.25 0.25 C-23.21875 -0.03875 -22.1875 -0.3275 -21.125 -0.625 C-21.125 -1.615 -21.125 -2.605 -21.125 -3.625 C-22.445 -3.955 -23.765 -4.285 -25.125 -4.625 C-25.125 -5.285 -25.125 -5.945 -25.125 -6.625 C-16.52205311 -9.85110508 -6.98868439 -4.76255905 0 0 Z " fill="#AC1D33" transform="translate(365.125,302.625)"/>
<path d="M0 0 C0.66644531 0.44730469 1.33289063 0.89460937 2.01953125 1.35546875 C12.44379121 8.30984836 12.44379121 8.30984836 24.17260742 12.4309082 C32.62206346 14.28562607 37.45936466 19.62409765 43.1875 25.6875 C44.14096832 26.66758429 45.09603974 27.64611165 46.05273438 28.62304688 C50.69092453 33.38593007 55.18764752 38.25856661 59.52709961 43.29516602 C61.53240063 45.6162363 63.6119111 47.8668189 65.6875 50.125 C68.82612441 53.5956973 71.57892838 56.99996863 74 61 C72.02 62.65 70.04 64.3 68 66 C67.443125 65.73445313 66.88625 65.46890625 66.3125 65.1953125 C56.09896652 60.46810275 45.79803426 58.19067113 34.51171875 60.51171875 C31.31506028 61.13315313 28.24778447 61.06368205 25 61 C24.60228394 59.95549683 24.60228394 59.95549683 24.1965332 58.88989258 C18.29288378 43.45586854 12.04602761 28.26457057 5.15356445 13.24536133 C4.36212036 11.51515747 4.36212036 11.51515747 3.5546875 9.75 C3.08530762 8.73421875 2.61592773 7.7184375 2.13232422 6.671875 C1.18337236 4.43269236 0.49232195 2.37331674 0 0 Z " fill="#EAEBE9" transform="translate(235,241)"/>
<path d="M0 0 C0.6379248 0.20399414 1.27584961 0.40798828 1.93310547 0.61816406 C16.40304854 5.32389229 31.38243092 12.88030349 40 26 C40 26.66 40 27.32 40 28 C34.86822923 27.47034476 30.04345036 26.58317749 25.0534668 25.28637695 C6.39320951 20.453158 -12.42175129 18.94627315 -31.60397339 17.88342285 C-41.65389096 17.31933898 -51.15740411 16.15902103 -61 14 C-64.32775448 13.40288551 -67.66303194 12.85544777 -71 12.3125 C-71.79776855 12.18109619 -72.59553711 12.04969238 -73.41748047 11.91430664 C-75.2780538 11.60791495 -77.13898656 11.30370705 -79 11 C-79 9.68 -79 8.36 -79 7 C-54.51490869 -2.60138733 -25.80267062 -8.5049695 0 0 Z " fill="#3E641C" transform="translate(301,213)"/>
<path d="M0 0 C2.5625 -0.4375 2.5625 -0.4375 6 0 C7.93822221 1.51804817 9.50696766 3.20683064 11.16796875 5.0234375 C12.91536376 6.9086867 14.72165228 8.5350483 16.6875 10.1875 C20.30139637 13.2961526 23.65287763 16.61113643 27 20 C30.91309096 23.96182944 34.8537836 27.7841245 39.1640625 31.3203125 C41 33 41 33 42.7734375 35.3046875 C44.74374438 37.77380625 46.23795298 39.44889971 49 41 C52.65697489 40.81014469 55.7876198 39.97088408 59.30078125 38.94921875 C64.87494203 37.51889027 70.28757822 37.74379504 76 38 C76 38.66 76 39.32 76 40 C74.68 40 73.36 40 72 40 C72 40.66 72 41.32 72 42 C73.65 42.33 75.3 42.66 77 43 C76.76953125 44.89453125 76.76953125 44.89453125 76 47 C74.07421875 48.01171875 74.07421875 48.01171875 71.6875 48.6875 C70.90761719 48.91824219 70.12773437 49.14898437 69.32421875 49.38671875 C67.83296135 49.7802102 66.32968401 50.13190476 64.81640625 50.4296875 C62.70791265 50.89205734 62.70791265 50.89205734 61.25 53.4375 C59.85385879 55.8244022 59.85385879 55.8244022 60 58 C60.99 58 61.98 58 63 58 C63.495 57.01 63.495 57.01 64 56 C64.66 56.33 65.32 56.66 66 57 C65.47975184 61.2486933 64.95333208 63.18240726 61.640625 66.0234375 C59.13342018 67.75864988 56.60625368 69.41797516 54 71 C54.495 74.465 54.495 74.465 55 78 C58.59773051 76.6637001 61.89039516 75.2691711 65 73 C66.10636395 70.60931266 66.10636395 70.60931266 67 68 C67.66 67.195625 68.32 66.39125 69 65.5625 C71.1682954 62.78437151 72.05903063 60.37180689 73 57 C74.42053662 59.2561464 75.03663008 60.56043906 74.8125 63.25 C74.544375 64.1575 74.27625 65.065 74 66 C73.83628906 66.62261719 73.67257812 67.24523437 73.50390625 67.88671875 C71.97637525 72.86779809 69.84114805 75.52070029 65.71875 78.67578125 C63.95609532 79.97347318 63.95609532 79.97347318 62.40625 81.60546875 C60.15438917 83.83856408 59.11157689 83.99776846 55.875 84.0625 C54.92625 84.041875 53.9775 84.02125 53 84 C52.34 82.68 51.68 81.36 51 80 C50.01 80.33 49.02 80.66 48 81 C47.67 80.01 47.34 79.02 47 78 C45.43920222 81.58721171 44.52509152 84.958386 43.875 88.8125 C43.70742188 89.78832031 43.53984375 90.76414062 43.3671875 91.76953125 C43.18542969 92.87361328 43.18542969 92.87361328 43 94 C42.67 94 42.34 94 42 94 C41.97494385 93.44538086 41.9498877 92.89076172 41.92407227 92.31933594 C41.80772073 89.79601157 41.68517246 87.27302464 41.5625 84.75 C41.52318359 83.87730469 41.48386719 83.00460937 41.44335938 82.10546875 C41.38051758 80.83896484 41.38051758 80.83896484 41.31640625 79.546875 C41.26141968 78.38430176 41.26141968 78.38430176 41.20532227 77.19824219 C41.00373486 75.03998652 40.55010354 73.09216084 40 71 C39.87794671 68.32459184 39.95532687 65.68038762 40 63 C43.11257569 63 45.10765685 63.17361624 48 64 C48 64.66 48 65.32 48 66 C49.3410477 65.24266726 50.67269781 64.46867264 52 63.6875 C52.7425 63.25824219 53.485 62.82898438 54.25 62.38671875 C55.11625 61.70029297 55.11625 61.70029297 56 61 C56 60.01 56 59.02 56 58 C54.95199219 57.81824219 54.95199219 57.81824219 53.8828125 57.6328125 C52.97273438 57.46523438 52.06265625 57.29765625 51.125 57.125 C50.22007812 56.96257812 49.31515625 56.80015625 48.3828125 56.6328125 C46 56 46 56 44 54 C44.66 53.01 45.32 52.02 46 51 C45.01 50.67 44.02 50.34 43 50 C41.96552804 48.35450751 40.97052322 46.68400192 40 45 C38.62177392 43.36268879 37.2024731 41.75931966 35.75 40.1875 C33.02692623 37.21528465 30.31989908 34.2403068 27.6875 31.1875 C20.01058024 22.39618866 12.07409204 13.86982162 3.6574707 5.78222656 C2.40216316 4.5574746 1.19589405 3.28282962 0 2 C0 1.34 0 0.68 0 0 Z M66 55 C68 56 68 56 68 56 Z " fill="#B63140" transform="translate(268,256)"/>
<path d="M0 0 C1.98 0.33 3.96 0.66 6 1 C5.01 1.33 4.02 1.66 3 2 C2.67 2.66 2.34 3.32 2 4 C-1.0625 4.625 -1.0625 4.625 -4 5 C-4.33 5.99 -4.66 6.98 -5 8 C-4.34 8.33 -3.68 8.66 -3 9 C-3 9.99 -3 10.98 -3 12 C-2.43152344 11.89300781 -1.86304688 11.78601563 -1.27734375 11.67578125 C4.50388 10.77819559 7.92125568 10.99421254 13 14 C15.59196159 17.89216382 15.10733478 21.18404998 14.53515625 25.65625 C13.79778311 28.88562141 12.77367002 30.20086269 10 32 C8.02111039 32.72693904 6.02045442 33.39816251 4 34 C3.01 34.66 2.02 35.32 1 36 C1 35.01 1 34.02 1 33 C-5.28378013 31.66302551 -11.16700857 32.08350428 -17 35 C-18.54023996 35.06950541 -20.08334988 35.08452357 -21.625 35.0625 C-22.85089844 35.04896484 -22.85089844 35.04896484 -24.1015625 35.03515625 C-24.72804687 35.02355469 -25.35453125 35.01195312 -26 35 C-26.66 33.68 -27.32 32.36 -28 31 C-28.45375 31.495 -28.9075 31.99 -29.375 32.5 C-31 34 -31 34 -33 34 C-33.33 34.99 -33.66 35.98 -34 37 C-36.76037804 28.10360091 -36.76037804 28.10360091 -35.11328125 23.546875 C-28.92130566 13.84328586 -19.67973218 7.05434277 -9 3 C-5.90774419 2.34049346 -3.17481954 2.10582732 0 2 C0 1.34 0 0.68 0 0 Z " fill="#E84C63" transform="translate(261,302)"/>
<path d="M0 0 C5.47710148 -0.16002156 10.54800518 0.42899585 15.9375 1.375 C17.07735352 1.56449219 17.07735352 1.56449219 18.24023438 1.7578125 C21.78430713 2.36311955 25.16686346 3.04795753 28.62890625 4.04296875 C34.27881671 5.50128 40.10420587 5.55079347 45.90731812 5.8331604 C65.19483881 6.79482218 84.22364434 8.38324867 102.96557617 13.28637695 C108.32168092 14.68397619 113.48275954 15.50295131 119 16 C119 16.66 119 17.32 119 18 C113.69804345 18.78547504 108.65587861 19.07403512 103.296875 18.9375 C101.01902138 18.91470018 101.01902138 18.91470018 98.953125 19.5234375 C96.75032723 20.06092016 95.24221348 19.93000698 93 19.625 C89.37395058 19.18597159 85.79305826 18.94339427 82.14453125 18.84765625 C81.26990234 18.8204248 80.39527344 18.79319336 79.49414062 18.76513672 C77.73669317 18.7142565 75.97876313 18.67760448 74.22070312 18.65673828 C68.35713774 18.4642475 64.86737313 17.29980235 60 14 C59.67 14.66 59.34 15.32 59 16 C59 15.34 59 14.68 59 14 C58.443125 14.144375 57.88625 14.28875 57.3125 14.4375 C56.549375 14.623125 55.78625 14.80875 55 15 C54.2575 15.2475 53.515 15.495 52.75 15.75 C49.3201305 16.06180632 47.18183263 15.1349036 44.0625 13.7890625 C42.00147835 12.93402971 42.00147835 12.93402971 39.734375 12.55078125 C36.15002737 11.82879123 32.72284829 10.68785801 29.25 9.5625 C23.536792 7.73562861 17.87306586 6.23643492 12 5 C11.67 4.67 11.34 4.34 11 4 C8.42608359 3.46823602 5.84140483 3.03569201 3.25 2.59765625 C2.5075 2.40042969 1.765 2.20320312 1 2 C0.67 1.34 0.34 0.68 0 0 Z " fill="#729B46" transform="translate(223,224)"/>
<path d="M0 0 C1.05960937 0.00773437 1.05960937 0.00773437 2.140625 0.015625 C5.25989581 0.06288668 7.77305287 0.25768429 10.75 1.25 C12.71550034 3.80515044 12.75 5.37192611 12.75 8.625 C11.50053768 13.1543009 9.8597476 15.86341701 5.75 18.25 C3.4678979 18.57968454 1.43046734 18.49948745 -0.8671875 18.33203125 C-5.39538486 18.17614249 -10.19179523 19.22089761 -14.25 21.25 C-17.8125 21.375 -17.8125 21.375 -21.25 21.25 C-22.25 20.25 -22.25 20.25 -22.5625 16.5625 C-22.51492582 12.16188807 -21.17791673 9.59619055 -18.25 6.25 C-17.26 6.25 -16.27 6.25 -15.25 6.25 C-15.25 5.26 -15.25 4.27 -15.25 3.25 C-9.92463811 0.6012598 -5.91008181 -0.17642035 0 0 Z " fill="#E2717C" transform="translate(258.25,315.75)"/>
<path d="M0 0 C2.5625 -0.4375 2.5625 -0.4375 6 0 C7.93822221 1.51804817 9.50696766 3.20683064 11.16796875 5.0234375 C12.91536376 6.9086867 14.72165228 8.5350483 16.6875 10.1875 C20.30139637 13.2961526 23.65287763 16.61113643 27 20 C30.91148989 23.96020843 34.88128793 27.74494912 39.1328125 31.34375 C41.2429652 33.21551725 43.17172908 35.21564991 45.125 37.25 C48.22606185 40.41234765 50.89861651 42.3594466 55 44 C55.3125 46.6875 55.3125 46.6875 55 50 C52.6875 52.875 52.6875 52.875 50 55 C49.01 55 48.02 55 47 55 C46.8453125 54.0409375 46.8453125 54.0409375 46.6875 53.0625 C46.460625 52.381875 46.23375 51.70125 46 51 C45.01 50.67 44.02 50.34 43 50 C41.96552804 48.35450751 40.97052322 46.68400192 40 45 C38.62177392 43.36268879 37.2024731 41.75931966 35.75 40.1875 C33.02692623 37.21528465 30.31989908 34.2403068 27.6875 31.1875 C20.01058024 22.39618866 12.07409204 13.86982162 3.6574707 5.78222656 C2.40216316 4.5574746 1.19589405 3.28282962 0 2 C0 1.34 0 0.68 0 0 Z " fill="#446626" transform="translate(268,256)"/>
<path d="M0 0 C8.08246587 5.38831058 11.17081994 13.42880129 15 22 C15.50402344 23.12792969 16.00804687 24.25585938 16.52734375 25.41796875 C34 64.68805754 34 64.68805754 34 70 C32.02 70 30.04 70 28 70 C27.69316284 69.00093628 27.69316284 69.00093628 27.38012695 67.98168945 C23.07196997 54.12553384 18.28678751 40.7156385 12.3125 27.5 C11.77858643 26.31575439 11.24467285 25.13150879 10.69458008 23.91137695 C7.75634117 17.51457181 4.61559092 11.31910708 1.09057617 5.22460938 C0 3 0 3 0 0 Z " fill="#557A32" transform="translate(227,234)"/>
<path d="M0 0 C0 0.66 0 1.32 0 2 C-1.32 2 -2.64 2 -4 2 C-4 2.66 -4 3.32 -4 4 C-1.525 4.495 -1.525 4.495 1 5 C0.76953125 6.89453125 0.76953125 6.89453125 0 9 C-1.92578125 10.01171875 -1.92578125 10.01171875 -4.3125 10.6875 C-5.09238281 10.91824219 -5.87226563 11.14898437 -6.67578125 11.38671875 C-8.15773527 11.77775536 -9.64875303 12.13682791 -11.1484375 12.453125 C-13.25515033 12.93211086 -13.25515033 12.93211086 -15.3125 15.0625 C-18.72511935 17.52276046 -20.88693102 17.32259365 -25 17 C-24.505 16.29875 -24.01 15.5975 -23.5 14.875 C-21.8063319 11.62880281 -21.74837685 9.60659844 -22 6 C-22.99 5.67 -23.98 5.34 -25 5 C-25 4.34 -25 3.68 -25 3 C-16.51168642 0.43056454 -8.85406634 -0.38558031 0 0 Z " fill="#B1404E" transform="translate(344,294)"/>
<path d="M0 0 C8.79871863 -0.76882007 8.79871863 -0.76882007 13.125 2 C15.66041173 6.05665876 15.47188982 8.28110176 15 13 C13.05909174 14.94090826 9.52706098 14.39919435 6.9375 14.5625 C5.00197266 14.68818359 5.00197266 14.68818359 3.02734375 14.81640625 C2.02832031 14.87699219 1.02929688 14.93757813 0 15 C0.020625 16.27875 0.04125 17.5575 0.0625 18.875 C0.125 22.75 0.125 22.75 -1 25 C-1.99 24.67 -2.98 24.34 -4 24 C-6.28070175 17.84210526 -6.28070175 17.84210526 -5 14 C-4.34 13.67 -3.68 13.34 -3 13 C-1.22045081 10.10663225 -0.67141121 7.60932704 -0.375 4.25 C-0.26285156 3.05117188 -0.26285156 3.05117188 -0.1484375 1.828125 C-0.09945312 1.22484375 -0.05046875 0.6215625 0 0 Z " fill="#EFF1EE" transform="translate(255,255)"/>
<path d="M0 0 C1.98 0.33 3.96 0.66 6 1 C5.01 1.33 4.02 1.66 3 2 C2.67 2.66 2.34 3.32 2 4 C1.0925 4.103125 0.185 4.20625 -0.75 4.3125 C-4.16680504 4.71423859 -4.16680504 4.71423859 -6.3125 7.4375 C-9.545306 10.51994293 -11.6955324 10.81810734 -16.01171875 11.34765625 C-18.19206481 11.81416188 -18.19206481 11.81416188 -19.11328125 13.99609375 C-19.40589844 14.65738281 -19.69851562 15.31867188 -20 16 C-21.66666667 16.66666667 -23.33333333 17.33333333 -25 18 C-26.25827123 19.84982472 -26.25827123 19.84982472 -27 22 C-27.350625 22.598125 -27.70125 23.19625 -28.0625 23.8125 C-29.3467688 26.80912721 -29.62818874 29.77763576 -30 33 C-31.485 33.495 -31.485 33.495 -33 34 C-33.33 34.99 -33.66 35.98 -34 37 C-36.76037804 28.10360091 -36.76037804 28.10360091 -35.11328125 23.546875 C-28.92130566 13.84328586 -19.67973218 7.05434277 -9 3 C-5.90774419 2.34049346 -3.17481954 2.10582732 0 2 C0 1.34 0 0.68 0 0 Z " fill="#D0384C" transform="translate(261,302)"/>
<path d="M0 0 C0.87527344 0.07863281 1.75054687 0.15726562 2.65234375 0.23828125 C5.0625 0.6875 5.0625 0.6875 8.0625 2.6875 C8.25 5.8125 8.25 5.8125 8.0625 8.6875 C7.4025 8.6875 6.7425 8.6875 6.0625 8.6875 C6.0625 9.3475 6.0625 10.0075 6.0625 10.6875 C-0.47908399 14.33861665 -6.57629629 13.98637594 -13.9375 13.6875 C-13.9375 11.7075 -13.9375 9.7275 -13.9375 7.6875 C-13.2775 7.6875 -12.6175 7.6875 -11.9375 7.6875 C-11.6075 6.3675 -11.2775 5.0475 -10.9375 3.6875 C-9.6175 3.3575 -8.2975 3.0275 -6.9375 2.6875 C-6.9375 2.0275 -6.9375 1.3675 -6.9375 0.6875 C-4.37082316 -0.59583842 -2.84150742 -0.27956094 0 0 Z " fill="#EC9AA3" transform="translate(255.9375,318.3125)"/>
<path d="M0 0 C4.95 0 9.9 0 15 0 C15 4.95 15 9.9 15 15 C10.05 15 5.1 15 0 15 C0 10.05 0 5.1 0 0 Z " fill="#F1F1F1" transform="translate(345,585)"/>
<path d="M0 0 C4.95 0 9.9 0 15 0 C15 4.95 15 9.9 15 15 C10.05 15 5.1 15 0 15 C0 10.05 0 5.1 0 0 Z " fill="#F1F1F1" transform="translate(105,585)"/>
<path d="M0 0 C4.95 0 9.9 0 15 0 C15 4.29 15 8.58 15 13 C9.47675107 15.76162446 6.07971343 14.72377541 0 14 C0 9.38 0 4.76 0 0 Z " fill="#F1F1F1" transform="translate(120,0)"/>
<path d="M0 0 C2 1 2 1 2 1 Z M-2 1 C-1.34 1.33 -0.68 1.66 0 2 C-0.52024816 6.2486933 -1.04666792 8.18240726 -4.359375 11.0234375 C-6.86657982 12.75864988 -9.39374632 14.41797516 -12 16 C-11.67 18.31 -11.34 20.62 -11 23 C-7.40226949 21.6637001 -4.10960484 20.2691711 -1 18 C0.10636395 15.60931266 0.10636395 15.60931266 1 13 C4.42857143 8.28571429 4.42857143 8.28571429 7 7 C6.52110442 12.95027756 5.69178929 16.98228654 1.0625 21 C-3.64665153 24.6616954 -6.99195662 26.31984415 -13 27 C-13.50636607 25.25183142 -14.00484619 23.50137737 -14.5 21.75 C-14.7784375 20.77546875 -15.056875 19.8009375 -15.34375 18.796875 C-16 16 -16 16 -16 12 C-15.030625 11.731875 -14.06125 11.46375 -13.0625 11.1875 C-12.051875 10.795625 -11.04125 10.40375 -10 10 C-9.67 9.01 -9.34 8.02 -9 7 C-7.34467377 5.98133771 -5.67739862 4.98189187 -4 4 C-3.34 3.01 -2.68 2.02 -2 1 Z " fill="#CA5B69" transform="translate(334,311)"/>
<path d="M0 0 C2.01003635 3.01505452 2.99171541 5.57496212 4.125 9 C4.47820312 10.051875 4.83140625 11.10375 5.1953125 12.1875 C6 15 6 15 6 18 C-0.93 17.505 -0.93 17.505 -8 17 C-8 12.38 -8 7.76 -8 3 C-6.865625 2.87625 -5.73125 2.7525 -4.5625 2.625 C-3.386875 2.41875 -2.21125 2.2125 -1 2 C-0.67 1.34 -0.34 0.68 0 0 Z " fill="#E1E4DF" transform="translate(248,282)"/>
<path d="M0 0 C0.99 0.33 1.98 0.66 3 1 C2.67 1.66 2.34 2.32 2 3 C2.74765625 2.91621094 3.4953125 2.83242187 4.265625 2.74609375 C5.74289063 2.59333984 5.74289063 2.59333984 7.25 2.4375 C8.22453125 2.33308594 9.1990625 2.22867188 10.203125 2.12109375 C12.79432193 2.00890506 14.52856116 2.37157858 17 3 C17.99 2.67 18.98 2.34 20 2 C20 2.66 20 3.32 20 4 C21.258125 4.144375 22.51625 4.28875 23.8125 4.4375 C26.42667123 4.73748686 28.47439892 5.15813297 31 6 C33.00875442 5.72428861 35.01178687 5.39764263 37 5 C37.495 5.99 37.495 5.99 38 7 C39.60407328 7.02708567 41.2082785 7.04643483 42.8125 7.0625 C44.15248047 7.07990234 44.15248047 7.07990234 45.51953125 7.09765625 C48.13413791 7.11009967 48.13413791 7.11009967 51 6 C51 6.66 51 7.32 51 8 C52.2065625 7.7215625 52.2065625 7.7215625 53.4375 7.4375 C54.7059375 7.2209375 54.7059375 7.2209375 56 7 C56.495 7.495 56.495 7.495 57 8 C58.010625 7.979375 59.02125 7.95875 60.0625 7.9375 C64.42512043 8.00674794 67.81669833 8.82573988 72 10 C72 10.66 72 11.32 72 12 C70.99324219 11.91435791 69.98648438 11.82871582 68.94921875 11.74047852 C65.13231122 11.41626543 61.31520734 11.09441356 57.49804688 10.77319336 C55.8612756 10.63514277 54.22455474 10.49649297 52.58789062 10.35717773 C50.20456389 10.15441929 47.82109264 9.95351385 45.4375 9.75390625 C44.25225235 9.65458298 44.25225235 9.65458298 43.0430603 9.55325317 C37.8155924 9.12445812 32.58811527 8.79009455 27.3515625 8.49609375 C21.89701348 8.16905222 16.72254012 7.60715116 11.375 6.5 C10.10398438 6.2421875 8.83296875 5.984375 7.5234375 5.71875 C6.36070312 5.4815625 5.19796875 5.244375 4 5 C2.00160757 4.65716067 0.00212229 4.32033957 -2 4 C-1.34 2.68 -0.68 1.36 0 0 Z " fill="#4D7827" transform="translate(236,222)"/>
<path d="M0 0 C0.99 0.33 1.98 0.66 3 1 C3.33 1.99 3.66 2.98 4 4 C4.66 4.33 5.32 4.66 6 5 C6 6.32 6 7.64 6 9 C9.3 9.66 12.6 10.32 16 11 C16.33 12.32 16.66 13.64 17 15 C14.01328244 17.57189568 11.86142204 19.21616433 8 20 C7.55269531 19.32453125 7.10539062 18.6490625 6.64453125 17.953125 C3.43142044 13.21224508 0.59701499 9.48258712 -4 6 C-4 5.01 -4 4.02 -4 3 C-2.1875 1.25 -2.1875 1.25 0 0 Z " fill="#9D1E2F" transform="translate(308,302)"/>
<path d="M0 0 C3.77727089 1.81309003 7.37269822 3.9073259 11 6 C11.3125 8.6875 11.3125 8.6875 11 12 C8.6875 14.875 8.6875 14.875 6 17 C5.01 17 4.02 17 3 17 C2.896875 16.360625 2.79375 15.72125 2.6875 15.0625 C2.460625 14.381875 2.23375 13.70125 2 13 C1.01 12.67 0.02 12.34 -1 12 C-4 7.66666667 -4 7.66666667 -4 5 C-3.01 5 -2.02 5 -1 5 C-0.67 3.35 -0.34 1.7 0 0 Z " fill="#3C4720" transform="translate(312,294)"/>
<path d="M0 0 C0.32712342 6.13053511 0.39366878 10.62669111 -3 16 C-3.639375 15.34 -4.27875 14.68 -4.9375 14 C-8.18518339 10.72415751 -11.69968251 7.76193482 -15.20703125 4.76953125 C-15.79871094 4.18558594 -16.39039063 3.60164062 -17 3 C-17 2.34 -17 1.68 -17 1 C-11.29014022 0.25983299 -5.75813575 -0.10469338 0 0 Z " fill="#E4E7E3" transform="translate(345,224)"/>
<path d="M0 0 C-3.20648778 2.13765852 -5.27014721 2.2767224 -9.01953125 2.65234375 C-11.74900891 3.13148283 -13.65674588 4.55799747 -16 6 C-18.32716 6.37400786 -20.66117862 6.70764733 -23 7 C-25.44256108 7.86846616 -27.68550217 8.84275109 -30 10 C-30.33 9.34 -30.66 8.68 -31 8 C-34.12197478 9.3089572 -34.12197478 9.3089572 -36 12 C-37.65 11.67 -39.3 11.34 -41 11 C-40.67 10.01 -40.34 9.02 -40 8 C-37.55621594 6.84574037 -35.22586668 5.89303803 -32.6875 5 C-31.9663501 4.73944824 -31.2452002 4.47889648 -30.50219727 4.21044922 C-20.42288425 0.64201758 -10.70380706 -2.59486232 0 0 Z " fill="#4E752A" transform="translate(262,212)"/>
<path d="M0 0 C5.36062092 2.02287582 5.36062092 2.02287582 7.17578125 4.796875 C8.68842998 8.84016355 7.94386518 12.86628388 7 17 C4.37805243 20.88436678 1.38512164 21.69379355 -3 23 C-3.99 23.66 -4.98 24.32 -6 25 C-5.28144305 20.45588633 -2.62740834 18.26677343 0.50390625 15.09765625 C2.37018697 12.480965 2.35060479 11.15544311 2 8 C1.67 6.68 1.34 5.36 1 4 C-2.63 3.34 -6.26 2.68 -10 2 C-6.25816125 -0.49455917 -4.43756964 -0.37606522 0 0 Z " fill="#D84A5B" transform="translate(268,313)"/>
<path d="M0 0 C-1.6683669 5.00510071 -6.48185407 6.66395121 -11 9 C-14.95854883 10.61218146 -18.71364514 11.25977908 -23 11 C-23.66 9.68 -24.32 8.36 -25 7 C-18.4679803 4.11083744 -18.4679803 4.11083744 -15.625 3.4375 C-14.820625 3.2209375 -14.820625 3.2209375 -14 3 C-13.67 2.34 -13.34 1.68 -13 1 C-8.25244185 -0.76869813 -4.92682675 -1.20166506 0 0 Z " fill="#84202F" transform="translate(366,368)"/>
<path d="M0 0 C0.495 0.99 0.495 0.99 1 2 C-12.0467884 9.72309888 -25.90318465 15.27157859 -41.375 15.0625 C-42.68597656 15.04896484 -42.68597656 15.04896484 -44.0234375 15.03515625 C-45.00183594 15.01775391 -45.00183594 15.01775391 -46 15 C-46 14.67 -46 14.34 -46 14 C-44.73542969 13.81824219 -44.73542969 13.81824219 -43.4453125 13.6328125 C-42.34960938 13.46523437 -41.25390625 13.29765625 -40.125 13.125 C-39.03445313 12.96257812 -37.94390625 12.80015625 -36.8203125 12.6328125 C-33.88067286 12.23743487 -33.88067286 12.23743487 -32 10 C-29.609375 9.7265625 -29.609375 9.7265625 -26.75 9.625 C-21.68990508 9.28149486 -19.14715902 7.96225644 -15 5 C-12.125 5.25 -12.125 5.25 -10 6 C-10.495 4.515 -10.495 4.515 -11 3 C-7.34920174 1.38935371 -3.9492568 0.55105909 0 0 Z " fill="#89A766" transform="translate(342,241)"/>
<path d="M0 0 C2.10045996 2.10045996 3.07205336 4.1314448 4.31030273 6.80029297 C7.32211227 13.2799166 10.34348718 18.42664921 16 23 C14.68 23.33 13.36 23.66 12 24 C11.67 23.34 11.34 22.68 11 22 C8.42048126 21.30906104 8.42048126 21.30906104 5.4375 20.875 C4.42558594 20.70742188 3.41367188 20.53984375 2.37109375 20.3671875 C1.58863281 20.24601562 0.80617187 20.12484375 0 20 C-0.027193 18.41676312 -0.04648306 16.83338938 -0.0625 15.25 C-0.07410156 14.36828125 -0.08570313 13.4865625 -0.09765625 12.578125 C-0.00823493 10.21740212 0.43126034 8.27495864 1 6 C0.67 5.67 0.34 5.34 0 5 C-0.04063832 3.33382885 -0.042721 1.66611905 0 0 Z " fill="#E7E4E4" transform="translate(225,354)"/>
<path d="M0 0 C3.22481543 1.05858072 3.99274571 1.98720516 5.703125 5.00390625 C6.46882812 6.76541016 6.46882812 6.76541016 7.25 8.5625 C7.77078125 9.73941406 8.2915625 10.91632813 8.828125 12.12890625 C10 15 10 15 10 16 C2.375 17.25 2.375 17.25 -1 15 C-1.328125 12.03125 -1.328125 12.03125 -1.25 8.5 C-1.23453125 7.3346875 -1.2190625 6.169375 -1.203125 4.96875 C-1 2 -1 2 0 0 Z " fill="#E2E5DF" transform="translate(226,238)"/>
<path d="M0 0 C1.63001953 0.01353516 1.63001953 0.01353516 3.29296875 0.02734375 C4.12441406 0.03894531 4.95585937 0.05054688 5.8125 0.0625 C5.8125 1.3825 5.8125 2.7025 5.8125 4.0625 C6.4725 4.3925 7.1325 4.7225 7.8125 5.0625 C4.89666415 6.04415279 1.9796912 7.02238301 -0.9375 8 C-1.7625 8.27779297 -2.5875 8.55558594 -3.4375 8.84179688 C-4.63632813 9.24301758 -4.63632813 9.24301758 -5.859375 9.65234375 C-6.5925293 9.89847412 -7.32568359 10.14460449 -8.08105469 10.39819336 C-10.10259473 11.03572355 -12.12597426 11.57156354 -14.1875 12.0625 C-13.8575 11.0725 -13.5275 10.0825 -13.1875 9.0625 C-11.8675 9.0625 -10.5475 9.0625 -9.1875 9.0625 C-9.1875 6.4225 -9.1875 3.7825 -9.1875 1.0625 C-5.90230525 -0.03256492 -3.45086585 -0.03710608 0 0 Z " fill="#E5E7E4" transform="translate(234.1875,208.9375)"/>
<path d="M0 0 C-9.0851964 7.2885733 -19.97610399 6.34529605 -31 6 C-31.66 4.68 -32.32 3.36 -33 2 C-32.3915625 2.03480469 -31.783125 2.06960938 -31.15625 2.10546875 C-24.38512724 2.31457695 -18.23426234 1.46523036 -11.66015625 -0.02075195 C-7.45647719 -0.92251229 -4.18757842 -0.98034782 0 0 Z " fill="#922032" transform="translate(296,383)"/>
<path d="M0 0 C1.21236328 0.72316406 1.21236328 0.72316406 2.44921875 1.4609375 C4.05216797 2.40839844 4.05216797 2.40839844 5.6875 3.375 C7.27111328 4.31472656 7.27111328 4.31472656 8.88671875 5.2734375 C11.557191 6.75442713 14.13932051 7.94913815 17 9 C14.41596392 11.53835868 13.23931642 11.99485632 9.546875 12.07421875 C7.66742188 11.88279297 7.66742188 11.88279297 5.75 11.6875 C4.48671875 11.56761719 3.2234375 11.44773437 1.921875 11.32421875 C0.95765625 11.21722656 -0.0065625 11.11023438 -1 11 C-2.25 3.375 -2.25 3.375 0 0 Z " fill="#E6E5E6" transform="translate(241,378)"/>
<path d="M0 0 C0.66 0 1.32 0 2 0 C2.43828125 0.63679687 2.8765625 1.27359375 3.328125 1.9296875 C5.40616511 4.50296147 6.52992533 4.6549891 9.75 5.125 C10.64589844 5.27453125 11.54179687 5.4240625 12.46484375 5.578125 C13.71974609 5.78695312 13.71974609 5.78695312 15 6 C17.34622853 6.61975848 19.67891331 7.29187186 22 8 C23.08410156 8.31195313 24.16820312 8.62390625 25.28515625 8.9453125 C26.46980469 9.29335937 27.65445313 9.64140625 28.875 10 C30.57269531 10.495 30.57269531 10.495 32.3046875 11 C35 12 35 12 36 14 C28.57575884 13.03801753 21.93335728 11.82470111 15 9 C14.01 9 13.02 9 12 9 C12 10.32 12 11.64 12 13 C11.34 13 10.68 13 10 13 C10 12.34 10 11.68 10 11 C9.34 11 8.68 11 8 11 C7.67 11.99 7.34 12.98 7 14 C6.5875 13.13375 6.175 12.2675 5.75 11.375 C4.05324198 7.94599852 4.05324198 7.94599852 1.8125 4.75 C0 2 0 2 0 0 Z " fill="#90B269" transform="translate(219,221)"/>
<path d="M0 0 C9.44473415 -0.47620508 16.88529599 0.07416401 25.87890625 3.125 C29.07225087 4.02025556 31.70205129 4.15869828 35 4 C35 4.66 35 5.32 35 6 C31.37 6.33 27.74 6.66 24 7 C24 6.34 24 5.68 24 5 C18.39 5 12.78 5 7 5 C7 4.34 7 3.68 7 3 C4.69 2.67 2.38 2.34 0 2 C0 1.34 0 0.68 0 0 Z " fill="#67923B" transform="translate(307,236)"/>
<path d="M0 0 C4.10447392 0.51776621 5.95699523 2.64627444 8.75 5.5625 C9.94882812 6.80193359 9.94882812 6.80193359 11.171875 8.06640625 C11.77515625 8.70449219 12.3784375 9.34257812 13 10 C12.25 12.9375 12.25 12.9375 11 16 C8.875 16.875 8.875 16.875 7 17 C5.65472507 15.59466816 4.3241269 14.17527548 3 12.75 C2.2575 11.96109375 1.515 11.1721875 0.75 10.359375 C-1 8 -1 8 -1 4 C-0.34 4 0.32 4 1 4 C4 7.46153846 4 7.46153846 4 10 C4.66 10 5.32 10 6 10 C5.87822312 8.08533633 5.87822312 8.08533633 5 6 C3.34051852 4.98812105 1.67419438 3.9873454 0 3 C0 2.01 0 1.02 0 0 Z " fill="#4B722A" transform="translate(300,283)"/>
<path d="M0 0 C-0.54723683 3.37462715 -1.0549 5.08235 -3 8 C-5.1640625 8.29296875 -5.1640625 8.29296875 -7.625 8.1875 C-8.44226563 8.16042969 -9.25953125 8.13335937 -10.1015625 8.10546875 C-10.72804687 8.07066406 -11.35453125 8.03585937 -12 8 C-12.33 8.66 -12.66 9.32 -13 10 C-15 8 -15 8 -15.125 5.5625 C-13.80347416 2.55235781 -13.25480797 2.36892385 -10.3125 1.1875 C-6.8029841 0.06192553 -3.70034297 -0.27752572 0 0 Z " fill="#EEABB3" transform="translate(261,321)"/>
<path d="M0 0 C4.62 0 9.24 0 14 0 C14 0.66 14 1.32 14 2 C15.32 2.66 16.64 3.32 18 4 C17.76928323 7.9990906 17.56356875 10.33396421 14.9375 13.4375 C10.98715265 15.53874859 8.43222695 15.30048996 4 15 C7.625 12 7.625 12 11 12 C11 11.34 11 10.68 11 10 C11.66 10 12.32 10 13 10 C12.67 8.02 12.34 6.04 12 4 C6.06 2.515 6.06 2.515 0 1 C0 0.67 0 0.34 0 0 Z " fill="#E9818C" transform="translate(251,317)"/>
<path d="M0 0 C1.58294782 -0.05437607 3.16644256 -0.09296271 4.75 -0.125 C5.63171875 -0.14820313 6.5134375 -0.17140625 7.421875 -0.1953125 C10.1135858 0.00860498 11.69904974 0.63448279 14 2 C14 2.66 14 3.32 14 4 C12.10546779 4.64964023 10.20931351 5.29455115 8.3125 5.9375 C7.25675781 6.29714844 6.20101563 6.65679687 5.11328125 7.02734375 C2 8 2 8 -0.8125 8.5 C-3.19642238 8.7752725 -3.19642238 8.7752725 -4.3125 11.0625 C-4.539375 11.701875 -4.76625 12.34125 -5 13 C-5.66 12.67 -6.32 12.34 -7 12 C-6.57847656 11.38511719 -6.15695312 10.77023437 -5.72265625 10.13671875 C-4.90087891 8.92435547 -4.90087891 8.92435547 -4.0625 7.6875 C-3.51722656 6.88699219 -2.97195313 6.08648437 -2.41015625 5.26171875 C-0.86162674 2.9741857 -0.86162674 2.9741857 0 0 Z " fill="#AE575C" transform="translate(326,298)"/>
<path d="M0 0 C0 3.10551666 -0.5393715 4.35261084 -2 7 C-1.54625 6.34 -1.0925 5.68 -0.625 5 C-0.08875 4.34 0.4475 3.68 1 3 C1.66 3 2.32 3 3 3 C1 7 1 7 -0.0625 8.8125 C-1.3467688 11.80912721 -1.62818874 14.77763576 -2 18 C-2.99 18.33 -3.98 18.66 -5 19 C-5.33 19.99 -5.66 20.98 -6 22 C-8.8169562 12.92125562 -8.8169562 12.92125562 -6.8671875 8.3359375 C-4.80211031 5.27323848 -2.61003142 2.61003142 0 0 Z " fill="#D24053" transform="translate(233,317)"/>
<path d="M0 0 C0.83660156 0.144375 1.67320312 0.28875 2.53515625 0.4375 C10.15491377 1.65261083 17.30172853 2.12582797 25.0234375 2.00390625 C32.03097338 1.99702262 39.01144436 2.52098027 46 3 C46 3.66 46 4.32 46 5 C44.9275 4.979375 43.855 4.95875 42.75 4.9375 C39.26195783 4.84515934 39.26195783 4.84515934 37.015625 5.52734375 C34.78548462 6.05030303 33.26405016 5.93297741 31 5.625 C27.35030887 5.18178414 23.74666831 4.94260352 20.07421875 4.84765625 C19.19056641 4.8204248 18.30691406 4.79319336 17.39648438 4.76513672 C15.61299657 4.71402378 13.82902107 4.67750662 12.04492188 4.65673828 C6.77346307 4.4850196 3.84631031 3.9731989 0 0 Z " fill="#80A558" transform="translate(285,238)"/>
<path d="M0 0 C0 0.99 0 1.98 0 3 C-0.99 3 -1.98 3 -3 3 C-3.309375 3.61875 -3.61875 4.2375 -3.9375 4.875 C-4.625 6.25 -5.3125 7.625 -6 9 C-6.06950541 10.54023996 -6.08452357 12.08334988 -6.0625 13.625 C-6.05347656 14.44226563 -6.04445312 15.25953125 -6.03515625 16.1015625 C-6.02355469 16.72804688 -6.01195312 17.35453125 -6 18 C-9 17 -9 17 -10.75 14.75 C-12.25208837 11.44540558 -12.23598276 10.37835286 -11 7 C-7.69976654 1.46412452 -6.41461323 -0.16880561 0 0 Z " fill="#DF5566" transform="translate(243,319)"/>
<path d="M0 0 C3.10414702 -0.02903577 6.20825909 -0.0468107 9.3125 -0.0625 C10.19357422 -0.07087891 11.07464844 -0.07925781 11.98242188 -0.08789062 C12.82998047 -0.09111328 13.67753906 -0.09433594 14.55078125 -0.09765625 C15.72120972 -0.10551147 15.72120972 -0.10551147 16.9152832 -0.11352539 C19 0 19 0 22 1 C22 1.66 22 2.32 22 3 C20.14375 2.938125 20.14375 2.938125 18.25 2.875 C15.01759932 2.88644213 12.61718552 2.90625158 10 5 C9.38574032 7.03988716 9.38574032 7.03988716 9 9 C7.49704815 7.69088122 5.99770689 6.37761608 4.5 5.0625 C3.6646875 4.33160156 2.829375 3.60070312 1.96875 2.84765625 C1.3190625 2.23792969 0.669375 1.62820313 0 1 C0 0.67 0 0.34 0 0 Z " fill="#E9EFE3" transform="translate(275,257)"/>
<path d="M0 0 C0.4125 0.45375 0.825 0.9075 1.25 1.375 C3.06408095 3.05950374 4.75285627 3.99265971 7 5 C5.02 6.65 3.04 8.3 1 10 C0.443125 9.73445313 -0.11375 9.46890625 -0.6875 9.1953125 C-5.74975396 6.85230982 -10.55039954 5.18900374 -16 4 C-16 3.67 -16 3.34 -16 3 C-14.89591797 3.01740234 -14.89591797 3.01740234 -13.76953125 3.03515625 C-12.79371094 3.04417969 -11.81789063 3.05320312 -10.8125 3.0625 C-9.36810547 3.07990234 -9.36810547 3.07990234 -7.89453125 3.09765625 C-5.14423487 3.00486622 -2.67520409 2.62111685 0 2 C0 1.34 0 0.68 0 0 Z " fill="#F3E3E7" transform="translate(302,297)"/>
<path d="M0 0 C1.44928403 0.00399252 2.89856904 0.01875357 4.34765625 0.04296875 C5.44110352 0.04393555 5.44110352 0.04393555 6.55664062 0.04492188 C9.75945696 0.07134291 12.35295035 0.21140012 15.41015625 1.23046875 C17.37565659 3.78561919 17.41015625 5.35239486 17.41015625 8.60546875 C16.16497913 13.1192358 14.40109346 15.73835018 10.41015625 18.23046875 C6.66015625 18.73046875 6.66015625 18.73046875 3.41015625 18.23046875 C2.75015625 17.57046875 2.09015625 16.91046875 1.41015625 16.23046875 C2.44076172 16.08351563 2.44076172 16.08351563 3.4921875 15.93359375 C4.39324219 15.7840625 5.29429687 15.63453125 6.22265625 15.48046875 C7.11597656 15.34125 8.00929688 15.20203125 8.9296875 15.05859375 C11.95886231 14.0472787 12.83721197 12.96646955 14.41015625 10.23046875 C14.91075541 7.64529288 14.91075541 7.64529288 14.41015625 5.23046875 C13.42015625 4.57046875 12.43015625 3.91046875 11.41015625 3.23046875 C11.41015625 2.57046875 11.41015625 1.91046875 11.41015625 1.23046875 C2.99515625 1.72546875 2.99515625 1.72546875 -5.58984375 2.23046875 C-3.58984375 0.23046875 -3.58984375 0.23046875 0 0 Z " fill="#DF6270" transform="translate(253.58984375,315.76953125)"/>
<path d="M0 0 C4.0089086 2.17626467 6.89679227 4.6640517 10 8 C10.48210937 8.51175781 10.96421875 9.02351563 11.4609375 9.55078125 C12.875 11.125 12.875 11.125 15 14 C14.67 14.99 14.34 15.98 14 17 C12.35 17.33 10.7 17.66 9 18 C9 15.36 9 12.72 9 10 C7.68 9.34 6.36 8.68 5 8 C4.67 8.99 4.34 9.98 4 11 C1.52214277 7.33708062 0.51035831 4.3890815 0 0 Z " fill="#962034" transform="translate(360,300)"/>
<path d="M0 0 C5.80076605 -0.12029238 11.58095085 0.00946396 17.375 0.3125 C19.11910156 0.39951172 19.11910156 0.39951172 20.8984375 0.48828125 C24.14994453 1.02473896 25.60399393 1.79874319 28 4 C27.34 4.66 26.68 5.32 26 6 C26 5.34 26 4.68 26 4 C25.443125 4.144375 24.88625 4.28875 24.3125 4.4375 C23.549375 4.623125 22.78625 4.80875 22 5 C21.2575 5.2475 20.515 5.495 19.75 5.75 C16.27500507 6.06590863 14.09948566 5.08174122 10.921875 3.76171875 C8.65411066 2.86290971 6.3892273 2.46457198 4 2 C2.65605051 1.35500234 1.32089969 0.69097484 0 0 Z " fill="#7EA355" transform="translate(256,234)"/>
<path d="M0 0 C3.96 0.33 7.92 0.66 12 1 C13 5 13 5 12 7 C13.32 7.33 14.64 7.66 16 8 C16 8.99 16 9.98 16 11 C9.94099499 9.60176807 5.55818232 6.06877748 1 2 C0.67 1.34 0.34 0.68 0 0 Z " fill="#A72137" transform="translate(239,375)"/>
<path d="M0 0 C1.42053662 2.2561464 2.03663008 3.56043906 1.8125 6.25 C1.544375 7.1575 1.27625 8.065 1 9 C0.83628906 9.62261719 0.67257812 10.24523437 0.50390625 10.88671875 C-1.02362475 15.86779809 -3.15885195 18.52070029 -7.28125 21.67578125 C-9.04390468 22.97347318 -9.04390468 22.97347318 -10.59375 24.60546875 C-12.84561083 26.83856408 -13.88842311 26.99776846 -17.125 27.0625 C-18.07375 27.041875 -19.0225 27.02125 -20 27 C-20.33 25.68 -20.66 24.36 -21 23 C-20.67 23.66 -20.34 24.32 -20 25 C-13.42472597 22.88651906 -6.27239823 20.30188492 -2.8671875 13.85546875 C-1.28321965 9.34192928 -0.50479252 4.74504965 0 0 Z " fill="#BC3F4F" transform="translate(341,313)"/>
<path d="M0 0 C0 0.66 0 1.32 0 2 C-0.66 2 -1.32 2 -2 2 C-2 3.98 -2 5.96 -2 8 C2.29 8 6.58 8 11 8 C11 8.66 11 9.32 11 10 C6.0858728 11.00802609 1.00527017 11.59062188 -4 11 C-6 9 -6 9 -6.375 6.0625 C-6 3 -6 3 -4.125 1.125 C-2 0 -2 0 0 0 Z " fill="#E7818B" transform="translate(244,324)"/>
<path d="M0 0 C6.15234375 0.5859375 6.15234375 0.5859375 8 1 C8.33 1.66 8.66 2.32 9 3 C11.8265417 3.96197102 14.57829349 4.17600037 17.546875 4.31640625 C18.39121094 4.35830078 19.23554688 4.40019531 20.10546875 4.44335938 C21.41451172 4.50233398 21.41451172 4.50233398 22.75 4.5625 C23.63816406 4.60568359 24.52632813 4.64886719 25.44140625 4.69335938 C27.62745963 4.79913615 29.81362089 4.90122546 32 5 C32 5.66 32 6.32 32 7 C11.06036092 7.83758556 11.06036092 7.83758556 2 3 C1.34 2.01 0.68 1.02 0 0 Z " fill="#954150" transform="translate(310,374)"/>
<path d="M0 0 C6.62462203 2.45356371 6.62462203 2.45356371 8.234375 4.796875 C9.64773161 8.86388076 8.94316873 12.86933403 8 17 C5.37805243 20.88436678 2.38512164 21.69379355 -2 23 C-2.99 23.66 -3.98 24.32 -5 25 C-4.9375 23.1875 -4.9375 23.1875 -4 21 C-2.88625 20.525625 -1.7725 20.05125 -0.625 19.5625 C2.99687068 18.29644701 2.99687068 18.29644701 4.9375 15.875 C6.41382076 11.8802497 6.24772058 8.21124988 6 4 C3.03 3.505 3.03 3.505 0 3 C0 2.01 0 1.02 0 0 Z " fill="#D0394B" transform="translate(267,313)"/>
<path d="M0 0 C2.97 0.495 2.97 0.495 6 1 C5.01 1.33 4.02 1.66 3 2 C2.67 2.66 2.34 3.32 2 4 C1.0925 4.103125 0.185 4.20625 -0.75 4.3125 C-4.17059355 4.72741064 -4.17059355 4.72741064 -6.4375 7.4375 C-9.62566668 10.62566668 -11.6693129 11.06593023 -16 12 C-16 10.68 -16 9.36 -16 8 C-13.89915791 6.99303432 -11.79420511 5.9946411 -9.6875 5 C-8.51574219 4.443125 -7.34398437 3.88625 -6.13671875 3.3125 C-3 2 -3 2 0 2 C0 1.34 0 0.68 0 0 Z " fill="#EA324A" transform="translate(261,302)"/>
<path d="M0 0 C0.66 0.33 1.32 0.66 2 1 C1.01 2.485 1.01 2.485 0 4 C0.99 5.485 0.99 5.485 2 7 C1.6875 10.0625 1.6875 10.0625 0 13 C-2.9423179 14.14155503 -5.87475053 14.62702784 -9 15 C-6.20274084 9.8411204 -3.341475 4.82657501 0 0 Z " fill="#8B1828" transform="translate(318,359)"/>
<path d="M0 0 C1.30060593 2.60121187 0.82318917 3.49979981 0 6.25 C-1.78054417 11.32210061 -4.53129771 14.11538911 -9 17 C-11.9375 18.375 -11.9375 18.375 -14 19 C-14 18.34 -14 17.68 -14 17 C-13.401875 16.7525 -12.80375 16.505 -12.1875 16.25 C-8.87179151 14.35530943 -7.42146864 12.09581846 -6.0625 8.5625 C-4.66435184 5.19049561 -2.57623336 2.57623336 0 0 Z " fill="#CC495B" transform="translate(340,318)"/>
<path d="M0 0 C-2.6008458 2.87950786 -4.21728897 4.21737013 -8 5 C-8.33 5.66 -8.66 6.32 -9 7 C-11.97 6.67 -14.94 6.34 -18 6 C-17.34 4.68 -16.68 3.36 -16 2 C-14.68 2 -13.36 2 -12 2 C-11.67 2.33 -11.34 2.66 -11 3 C-11 2.67 -11 2.34 -11 2 C-7.17679443 0.57741188 -4.08718695 -0.24042276 0 0 Z " fill="#44721D" transform="translate(244,218)"/>
<path d="M0 0 C2.49361571 1.20381448 4.68143083 2.45428722 7 4 C4.82575883 6.50037734 3.26954202 7.43628586 0 8 C-0.33 7.34 -0.66 6.68 -1 6 C-4.11785113 6.64644661 -4.11785113 6.64644661 -5 9 C-6.65 9 -8.3 9 -10 9 C-9.278125 8.443125 -8.55625 7.88625 -7.8125 7.3125 C-5.02542701 5.02090666 -2.51358472 2.58540143 0 0 Z " fill="#ECDCDD" transform="translate(308,374)"/>
<path d="M0 0 C4 1.33333333 8 2.66666667 12 4 C12.144375 4.78375 12.28875 5.5675 12.4375 6.375 C12.87798925 8.96421018 12.87798925 8.96421018 14 11 C8.55694232 9.63923558 3.9707594 6.96068133 0 3 C0 2.01 0 1.02 0 0 Z " fill="#9DBB79" transform="translate(236,239)"/>
<path d="M0 0 C1.65 0 3.3 0 5 0 C4.649375 0.721875 4.29875 1.44375 3.9375 2.1875 C2.89590983 5.3122705 3.10903428 6.88161996 4 10 C4.763125 9.690625 5.52625 9.38125 6.3125 9.0625 C8.18789677 8.32106407 10.08684652 7.63771783 12 7 C11.67 7.99 11.34 8.98 11 10 C8.9375 10.6875 8.9375 10.6875 7 11 C7 11.66 7 12.32 7 13 C5.35 13.33 3.7 13.66 2 14 C0.4087311 9.126739 -0.21192221 5.19209404 0 0 Z " fill="#D16E7C" transform="translate(319,324)"/>
<path d="M0 0 C0.886875 0.309375 1.77375 0.61875 2.6875 0.9375 C7.38495055 2.31400703 12.14544128 2.4275178 17.01171875 2.65625 C19.89987456 2.9884823 21.48900453 3.64493472 24 5 C20.06263877 5.08696177 16.12552372 5.14037835 12.1875 5.1875 C10.50817383 5.22520508 10.50817383 5.22520508 8.79492188 5.26367188 C7.72177734 5.27333984 6.64863281 5.28300781 5.54296875 5.29296875 C4.0583313 5.31653442 4.0583313 5.31653442 2.54370117 5.34057617 C-0.3699213 4.95047123 -1.22497802 4.27991712 -3 2 C-2.01 2 -1.02 2 0 2 C0 1.34 0 0.68 0 0 Z " fill="#8FAD6B" transform="translate(267,252)"/>
<path d="M0 0 C0.66 0 1.32 0 2 0 C2 0.66 2 1.32 2 2 C3.2065625 1.7215625 3.2065625 1.7215625 4.4375 1.4375 C5.7059375 1.2209375 5.7059375 1.2209375 7 1 C7.33 1.33 7.66 1.66 8 2 C9.010625 1.979375 10.02125 1.95875 11.0625 1.9375 C15.42512043 2.00674794 18.81669833 2.82573988 23 4 C23 4.66 23 5.32 23 6 C19.7479935 5.75050033 16.49914423 5.47168823 13.25 5.1875 C12.32960938 5.11724609 11.40921875 5.04699219 10.4609375 4.97460938 C9.57148438 4.89404297 8.68203125 4.81347656 7.765625 4.73046875 C6.54020996 4.62835083 6.54020996 4.62835083 5.29003906 4.52416992 C2.59431328 3.90714186 1.08444317 2.78098508 -1 1 C-0.67 0.67 -0.34 0.34 0 0 Z " fill="#4C7524" transform="translate(285,228)"/>
<path d="M0 0 C-0.33 0.66 -0.66 1.32 -1 2 C-3.64 1.01 -6.28 0.02 -9 -1 C-8.65555119 1.47266765 -8.65555119 1.47266765 -8 4 C-7.34 4.33 -6.68 4.66 -6 5 C-6.99 5.495 -6.99 5.495 -8 6 C-8.99 5.67 -9.98 5.34 -11 5 C-11.6875 2.9375 -11.6875 2.9375 -12 1 C-13.32 0.67 -14.64 0.34 -16 0 C-16 -0.66 -16 -1.32 -16 -2 C-10.86774357 -3.92459616 -4.58402225 -2.8650139 0 0 Z " fill="#AA2838" transform="translate(356,298)"/>
<path d="M0 0 C2.46800047 1.15173355 4.04783565 2.04783565 6 4 C5.64644564 6.26274788 5.02455574 7.95088852 4 10 C0.125 9.125 0.125 9.125 -1 8 C-1.125 4.5 -1.125 4.5 -1 1 C-0.67 0.67 -0.34 0.34 0 0 Z " fill="#3B5A1C" transform="translate(312,294)"/>
<path d="M0 0 C4.33219963 -0.26255755 7.91895863 0.72023093 12 2 C13.63582031 2.47179687 13.63582031 2.47179687 15.3046875 2.953125 C17.07199219 3.47132813 17.07199219 3.47132813 18.875 4 C20.57269531 4.495 20.57269531 4.495 22.3046875 5 C25 6 25 6 26 8 C16.59587866 6.87975984 7.98582366 5.32388244 0 0 Z " fill="#84AB5A" transform="translate(229,227)"/>
<path d="M0 0 C-1 3 -1 3 -4 5 C-6.33882138 4.70764733 -8.67284 4.37400786 -11 4 C-11.99 4.33 -12.98 4.66 -14 5 C-13.67 3.68 -13.34 2.36 -13 1 C-8.20862412 -0.6290678 -4.94367454 -1.20577428 0 0 Z " fill="#921B2D" transform="translate(366,368)"/>
<path d="M0 0 C0 0.33 0 0.66 0 1 C3.96 1.33 7.92 1.66 12 2 C12 2.33 12 2.66 12 3 C0.0121533 3.16857909 -12.17419381 3.17171441 -24 1 C-24 0.67 -24 0.34 -24 0 C-22.81921875 0.01160156 -21.6384375 0.02320313 -20.421875 0.03515625 C-18.86458492 0.04453752 -17.30729312 0.05363736 -15.75 0.0625 C-14.97269531 0.07087891 -14.19539063 0.07925781 -13.39453125 0.08789062 C-12.64042969 0.09111328 -11.88632812 0.09433594 -11.109375 0.09765625 C-10.41811523 0.10289307 -9.72685547 0.10812988 -9.01464844 0.11352539 C-6.96718221 0.0689836 -6.96718221 0.0689836 -4.93066406 -0.56860352 C-3 -1 -3 -1 0 0 Z " fill="#57822E" transform="translate(274,228)"/>
<path d="M0 0 C0.33 0 0.66 0 1 0 C3.01670288 7.43659188 3.2137731 14.31604457 3 22 C2.34 22.33 1.68 22.66 1 23 C0.63714093 19.3549763 0.28616932 15.70890622 -0.0625 12.0625 C-0.16626953 11.02158203 -0.27003906 9.98066406 -0.37695312 8.90820312 C-0.47041016 7.91884766 -0.56386719 6.92949219 -0.66015625 5.91015625 C-0.74918213 4.99371338 -0.83820801 4.07727051 -0.92993164 3.13305664 C-0.9530542 2.42914795 -0.97617676 1.72523926 -1 1 C-0.67 0.67 -0.34 0.34 0 0 Z " fill="#CE1E35" transform="translate(307,322)"/>
<path d="M0 0 C0.97839844 0.2165625 0.97839844 0.2165625 1.9765625 0.4375 C6.72620177 1.44627294 11.11409188 2.25715306 16 2 C16 2.66 16 3.32 16 4 C12.37 4.33 8.74 4.66 5 5 C5 4.34 5 3.68 5 3 C-0.61 3 -6.22 3 -12 3 C-12 2.67 -12 2.34 -12 2 C-6.06 1.505 -6.06 1.505 0 1 C0 0.67 0 0.34 0 0 Z " fill="#719748" transform="translate(326,238)"/>
<path d="M0 0 C-4.53719008 2.89876033 -4.53719008 2.89876033 -7 3.4375 C-9.90007696 4.25314664 -11.74541439 6.05855128 -14 8 C-15.32 7.34 -16.64 6.68 -18 6 C-16.44000409 2.88000818 -13.87220503 2.54883154 -10.6875 1.3125 C-9.53636719 0.85488281 -8.38523437 0.39726562 -7.19921875 -0.07421875 C-4.13717158 -0.96030566 -2.88822927 -1.176686 0 0 Z " fill="#B94552" transform="translate(340,303)"/>
<path d="M0 0 C1.21236328 0.72316406 1.21236328 0.72316406 2.44921875 1.4609375 C4.05216797 2.40839844 4.05216797 2.40839844 5.6875 3.375 C7.27111328 4.31472656 7.27111328 4.31472656 8.88671875 5.2734375 C11.557191 6.75442713 14.13932051 7.94913815 17 9 C15.25 10.5625 15.25 10.5625 13 12 C10.75 11.6875 10.75 11.6875 9 11 C9 9.68 9 8.36 9 7 C6.69 6.34 4.38 5.68 2 5 C2 4.34 2 3.68 2 3 C1.34 3 0.68 3 0 3 C0 2.01 0 1.02 0 0 Z " fill="#F2D7D8" transform="translate(241,378)"/>
<path d="M0 0 C1.32 0.66 2.64 1.32 4 2 C3.76928323 5.9990906 3.56356875 8.33396421 0.9375 11.4375 C-3.01284735 13.53874859 -5.56777305 13.30048996 -10 13 C-6.57653445 9.85041169 -3.55737263 9.43820891 1 9 C1.07427838 5.65747276 1.06546953 3.1964086 0 0 Z " fill="#E47783" transform="translate(265,319)"/>
<path d="M0 0 C0.33 0.66 0.66 1.32 1 2 C-0.76371818 3.03307771 -2.53625033 4.05112049 -4.3125 5.0625 C-5.79169922 5.91521484 -5.79169922 5.91521484 -7.30078125 6.78515625 C-10 8 -10 8 -13 7 C-12.01 6.67 -11.02 6.34 -10 6 C-10.33 5.01 -10.66 4.02 -11 3 C-7.34920174 1.38935371 -3.9492568 0.55105909 0 0 Z " fill="#819E62" transform="translate(342,241)"/>
<path d="M0 0 C0.85722656 0.07863281 1.71445312 0.15726563 2.59765625 0.23828125 C4.9375 0.6875 4.9375 0.6875 7.9375 2.6875 C3.77611737 2.76909574 -0.0097484 2.66998524 -4.0625 1.6875 C-4.0625 2.3475 -4.0625 3.0075 -4.0625 3.6875 C-1.7525 4.0175 0.5575 4.3475 2.9375 4.6875 C2.9375 5.0175 2.9375 5.3475 2.9375 5.6875 C-0.0325 5.6875 -3.0025 5.6875 -6.0625 5.6875 C-6.0625 4.3675 -6.0625 3.0475 -6.0625 1.6875 C-7.0525 1.3575 -8.0425 1.0275 -9.0625 0.6875 C-5.87908676 -0.29485258 -3.30571485 -0.33406168 0 0 Z " fill="#6E9943" transform="translate(311.0625,234.3125)"/>
<path d="M0 0 C1.98 0 3.96 0 6 0 C5.06558465 1.27310312 4.12732889 2.543388 3.1875 3.8125 C2.66542969 4.52019531 2.14335937 5.22789062 1.60546875 5.95703125 C0 8 0 8 -3 11 C-3 8.03 -3 5.06 -3 2 C-2.01 2 -1.02 2 0 2 C0 1.34 0 0.68 0 0 Z " fill="#F5EBED" transform="translate(228,316)"/>
<path d="M0 0 C0.66 0.66 1.32 1.32 2 2 C1.01 2 0.02 2 -1 2 C-1 2.66 -1 3.32 -1 4 C-1.54269531 4.19335938 -2.08539063 4.38671875 -2.64453125 4.5859375 C-3.71767578 4.97652344 -3.71767578 4.97652344 -4.8125 5.375 C-5.52019531 5.63023437 -6.22789062 5.88546875 -6.95703125 6.1484375 C-9.24773359 7.0265769 -9.24773359 7.0265769 -12 9 C-14.1875 8.625 -14.1875 8.625 -16 8 C-12.90824661 4.42797423 -10.24247375 3.11727462 -5.75 1.75 C-4.67234375 1.41484375 -3.5946875 1.0796875 -2.484375 0.734375 C-1.25460938 0.37085938 -1.25460938 0.37085938 0 0 Z " fill="#F13E5B" transform="translate(255,310)"/>
<path d="M0 0 C3.21043882 1.38188453 5.04936365 2.92421903 7.25 5.625 C7.77078125 6.25664062 8.2915625 6.88828125 8.828125 7.5390625 C9.40820312 8.26222656 9.40820312 8.26222656 10 9 C6.89448334 9 5.64738916 8.4606285 3 7 C2.67 7.66 2.34 8.32 2 9 C1.01 7.68 0.02 6.36 -1 5 C-0.01 5 0.98 5 2 5 C1.34 3.35 0.68 1.7 0 0 Z " fill="#49662F" transform="translate(281,264)"/>
<path d="M0 0 C0.91007812 0.10183594 1.82015625 0.20367187 2.7578125 0.30859375 C3.45648438 0.39238281 4.15515625 0.47617187 4.875 0.5625 C4.875 0.8925 4.875 1.2225 4.875 1.5625 C3.77091797 1.70945312 3.77091797 1.70945312 2.64453125 1.859375 C-4.99294593 3.01743542 -4.99294593 3.01743542 -11.125 7.5625 C-11.455 6.5725 -11.785 5.5825 -12.125 4.5625 C-11.465 3.9025 -10.805 3.2425 -10.125 2.5625 C-9.135 2.5625 -8.145 2.5625 -7.125 2.5625 C-7.125 1.9025 -7.125 1.2425 -7.125 0.5625 C-4.50184968 -0.74907516 -2.89466564 -0.33399988 0 0 Z M-14.125 7.5625 C-13.135 8.0575 -13.135 8.0575 -12.125 8.5625 C-13.115 9.0575 -13.115 9.0575 -14.125 9.5625 C-14.125 8.9025 -14.125 8.2425 -14.125 7.5625 Z " fill="#EA8E98" transform="translate(256.125,318.4375)"/>
<path d="M0 0 C0.33 0.66 0.66 1.32 1 2 C-0.65 2.33 -2.3 2.66 -4 3 C-4.12375 3.78375 -4.2475 4.5675 -4.375 5.375 C-5 8 -5 8 -7 10 C-7.33 8.35 -7.66 6.7 -8 5 C-8.99 4.67 -9.98 4.34 -11 4 C-11 3.34 -11 2.68 -11 2 C-7.17679443 0.57741188 -4.08718695 -0.24042276 0 0 Z " fill="#A34652" transform="translate(330,295)"/>
<path d="M0 0 C3.96 0 7.92 0 12 0 C11.01 0.66 10.02 1.32 9 2 C7.79549696 4.55183404 7.79549696 4.55183404 7 7 C5.83040013 6.02433888 4.66438823 5.044375 3.5 4.0625 C2.8503125 3.51722656 2.200625 2.97195313 1.53125 2.41015625 C1.0259375 1.94480469 0.520625 1.47945313 0 1 C0 0.67 0 0.34 0 0 Z " fill="#D5E1CA" transform="translate(275,257)"/>
<path d="M0 0 C7.50769231 -0.36923077 7.50769231 -0.36923077 10 1.5 C10.495 2.2425 10.495 2.2425 11 3 C10 4 10 4 7.71484375 4.09765625 C6.34005859 4.08025391 6.34005859 4.08025391 4.9375 4.0625 C4.01839844 4.05347656 3.09929687 4.04445312 2.15234375 4.03515625 C1.44207031 4.02355469 0.73179687 4.01195312 0 4 C-0.33 3.34 -0.66 2.68 -1 2 C-0.67 1.34 -0.34 0.68 0 0 Z " fill="#EEF1EB" transform="translate(244,251)"/>
<path d="M0 0 C1.60407328 -0.02708567 3.2082785 -0.04643483 4.8125 -0.0625 C5.70582031 -0.07410156 6.59914063 -0.08570313 7.51953125 -0.09765625 C10 0 10 0 13 1 C13 1.99 13 2.98 13 4 C11.58249437 3.88490339 10.16598831 3.75746342 8.75 3.625 C7.96109375 3.55539063 7.1721875 3.48578125 6.359375 3.4140625 C3.914123 2.98492887 2.15163097 2.21399362 0 1 C0 0.67 0 0.34 0 0 Z " fill="#648D39" transform="translate(292,235)"/>
<path d="M0 0 C0.33 0 0.66 0 1 0 C1 1.98 1 3.96 1 6 C1.66 6 2.32 6 3 6 C3 7.65 3 9.3 3 11 C1.68 10.67 0.36 10.34 -1 10 C-1.33 10.66 -1.66 11.32 -2 12 C-2.66 12 -3.32 12 -4 12 C-2.66666667 8 -1.33333333 4 0 0 Z " fill="#F4DCDE" transform="translate(379,347)"/>
<path d="M0 0 C0.99 0 1.98 0 3 0 C3 0.66 3 1.32 3 2 C3.66 2 4.32 2 5 2 C6.7265625 3.75 6.7265625 3.75 8.625 6 C9.25664062 6.7425 9.88828125 7.485 10.5390625 8.25 C11.02117187 8.8275 11.50328125 9.405 12 10 C11.34 10.66 10.68 11.32 10 12 C8.32737283 10.38113585 6.66204463 8.7547271 5 7.125 C4.071875 6.22007812 3.14375 5.31515625 2.1875 4.3828125 C0 2 0 2 0 0 Z " fill="#E4EADB" transform="translate(306,285)"/>
<path d="M0 0 C-3.64116773 3.33773709 -7.28607242 3.97864902 -12 5 C-12.33 4.34 -12.66 3.68 -13 3 C-11.68 2.67 -10.36 2.34 -9 2 C-9 1.34 -9 0.68 -9 0 C-5.52176885 -1.15941038 -3.54104422 -0.70820884 0 0 Z " fill="#A22438" transform="translate(296,383)"/>
<path d="M0 0 C2.0234375 3.71875 2.0234375 3.71875 1.8125 6.25 C1.544375 7.1575 1.27625 8.065 1 9 C0.81308594 9.64582031 0.62617188 10.29164063 0.43359375 10.95703125 C-1.10289193 15.68940716 -2.68938504 18.20392543 -7 21 C-5.84826645 18.53199953 -4.95216435 16.95216435 -3 15 C-2.37551671 12.450504 -1.84109651 9.95279906 -1.375 7.375 C-1.2409375 6.66859375 -1.106875 5.9621875 -0.96875 5.234375 C-0.63889975 3.49088082 -0.31853944 1.74559611 0 0 Z " fill="#C83447" transform="translate(341,313)"/>
<path d="M0 0 C2 1 2 1 2 1 Z M-2 1 C-1.34 1.33 -0.68 1.66 0 2 C-0.5 4.875 -0.5 4.875 -2 8 C-4.68310961 9.18275852 -7.0681289 9.52711756 -10 10 C-8.73786958 6.21360875 -7.34654649 5.95895404 -4 4 C-3.34 3.01 -2.68 2.02 -2 1 Z " fill="#CE4859" transform="translate(334,311)"/>
<path d="M0 0 C-0.99 0.495 -0.99 0.495 -2 1 C-2 1.66 -2 2.32 -2 3 C-8.75 6.875 -8.75 6.875 -11 8 C-11 6.68 -11 5.36 -11 4 C-10.01 4 -9.02 4 -8 4 C-8 3.01 -8 2.02 -8 1 C-5.07175348 0.02391783 -3.04386724 -0.08226668 0 0 Z " fill="#EB7782" transform="translate(251,318)"/>
<path d="M0 0 C0.66 0 1.32 0 2 0 C3.52491998 3.04983996 3.23562548 5.6423369 3 9 C1.484375 10.72265625 1.484375 10.72265625 0 12 C-0.19573608 10.56359829 -0.38127816 9.12580496 -0.5625 7.6875 C-0.66691406 6.88699219 -0.77132813 6.08648437 -0.87890625 5.26171875 C-1 3 -1 3 0 0 Z " fill="#B83C49" transform="translate(312,325)"/>
<path d="M0 0 C2.27057377 -0.05398987 4.54151288 -0.09278742 6.8125 -0.125 C8.07707031 -0.14820313 9.34164063 -0.17140625 10.64453125 -0.1953125 C14 0 14 0 17 2 C14.11788698 2.96070434 12.30149956 3.10581883 9.3125 3.0625 C8.10013672 3.04896484 8.10013672 3.04896484 6.86328125 3.03515625 C5.94095703 3.01775391 5.94095703 3.01775391 5 3 C5 2.67 5 2.34 5 2 C3.35 1.67 1.7 1.34 0 1 C0 0.67 0 0.34 0 0 Z " fill="#C8495A" transform="translate(272,300)"/>
<path d="M0 0 C0.33 1.32 0.66 2.64 1 4 C-5.4 5.35384615 -5.4 5.35384615 -8.4375 3.5625 C-8.953125 3.046875 -9.46875 2.53125 -10 2 C-3.375 0 -3.375 0 0 0 Z " fill="#EFDADB" transform="translate(292,386)"/>
<path d="M0 0 C2.22825644 2.22825644 2.69239369 3.65761628 3.625 6.625 C4.01558594 7.85089844 4.01558594 7.85089844 4.4140625 9.1015625 C4.60742188 9.72804688 4.80078125 10.35453125 5 11 C4.34 11.66 3.68 12.32 3 13 C2.01 12.67 1.02 12.34 0 12 C0.185625 11.030625 0.37125 10.06125 0.5625 9.0625 C0.706875 8.051875 0.85125 7.04125 1 6 C0.67 5.67 0.34 5.34 0 5 C-0.04063832 3.33382885 -0.042721 1.66611905 0 0 Z " fill="#F1D5DA" transform="translate(225,354)"/>
<path d="M0 0 C0 3 0 3 -1.4375 4.8125 C-3.36400645 7.50960903 -3.6299761 9.74378965 -4 13 C-4.99 13 -5.98 13 -7 13 C-6.70876501 7.02968261 -3.97185616 4.105466 0 0 Z " fill="#B9384A" transform="translate(233,317)"/>
<path d="M0 0 C2.4375 0.125 2.4375 0.125 5 1 C6.3125 3.5625 6.3125 3.5625 7 6 C6.34 6.66 5.68 7.32 5 8 C3.02 5.69 1.04 3.38 -1 1 C-0.67 0.67 -0.34 0.34 0 0 Z " fill="#DEE8D8" transform="translate(290,269)"/>
<path d="M0 0 C3.92300495 2.35380297 4.83857315 4.64464931 6 9 C4.35 8.67 2.7 8.34 1 8 C0.02391783 5.07175348 -0.08226668 3.04386724 0 0 Z " fill="#395C1D" transform="translate(277,260)"/>
<path d="M0 0 C-1 2 -2 4 -3 6 C-4.65 5.67 -6.3 5.34 -8 5 C-7 2 -7 2 -5.125 0.8125 C-3 0 -3 0 0 0 Z " fill="#567E34" transform="translate(229,218)"/>
<path d="M0 0 C4.62 0 9.24 0 14 0 C14 0.99 14 1.98 14 3 C10.45332822 4.25127906 8.27746562 3.72285053 4.75 2.5625 C3.85796875 2.27503906 2.9659375 1.98757813 2.046875 1.69140625 C1.37140625 1.46324219 0.6959375 1.23507812 0 1 C0 0.67 0 0.34 0 0 Z " fill="#F2D5D6" transform="translate(286,300)"/>
<path d="M0 0 C2.31 0.66 4.62 1.32 7 2 C6.67 3.98 6.34 5.96 6 8 C1.3125 4.38671875 1.3125 4.38671875 0 3 C0 2.01 0 1.02 0 0 Z " fill="#3A5A1C" transform="translate(284,271)"/>
<path d="M0 0 C0.33 1.32 0.66 2.64 1 4 C-2.3 4.33 -5.6 4.66 -9 5 C-9.33 4.34 -9.66 3.68 -10 3 C-5.05 1.515 -5.05 1.515 0 0 Z " fill="#E1E9DC" transform="translate(328,250)"/>
<path d="M0 0 C2.64 0.33 5.28 0.66 8 1 C8 2.32 8 3.64 8 5 C7.01 5.33 6.02 5.66 5 6 C2.3125 4.1875 2.3125 4.1875 0 2 C0 1.34 0 0.68 0 0 Z " fill="#DBE3D7" transform="translate(320,219)"/>
<path d="M0 0 C3.63094642 2.64960955 5.89851796 5.01824456 8 9 C6.0625 8.625 6.0625 8.625 4 8 C3.67 7.34 3.34 6.68 3 6 C2.01 6 1.02 6 0 6 C0 4.02 0 2.04 0 0 Z " fill="#E2EBDA" transform="translate(300,292)"/>
<path d="M0 0 C0.66 0 1.32 0 2 0 C4.83258179 2.97850267 6.87464318 5.8216459 7.3125 9.9375 C7.209375 10.618125 7.10625 11.29875 7 12 C0 3.55172414 0 3.55172414 0 0 Z " fill="#94AE7A" transform="translate(219,221)"/>
<path d="M0 0 C2.49361571 1.20381448 4.68143083 2.45428722 7 4 C6.01 4.99 5.02 5.98 4 7 C3.34 6.67 2.68 6.34 2 6 C2 5.01 2 4.02 2 3 C0.35 3.33 -1.3 3.66 -3 4 C-2.01 2.68 -1.02 1.36 0 0 Z " fill="#F0CFD3" transform="translate(308,374)"/>
<path d="M0 0 C3.59634744 3.49359465 6.83451967 7.11098131 10 11 C8.68 11 7.36 11 6 11 C4.296875 9.1015625 4.296875 9.1015625 2.75 6.625 C2.22921875 5.81289063 1.7084375 5.00078125 1.171875 4.1640625 C0 2 0 2 0 0 Z " fill="#F4CED2" transform="translate(231,367)"/>
<path d="M0 0 C0.99 0.33 1.98 0.66 3 1 C1.60667426 4.36720387 0.0210714 5.9859524 -3 8 C-3.33 7.34 -3.66 6.68 -4 6 C-2.68 4.02 -1.36 2.04 0 0 Z " fill="#B7253B" transform="translate(308,369)"/>
<path d="M0 0 C0.33 0 0.66 0 1 0 C1.24954005 1.43410368 1.47392642 2.87260072 1.6875 4.3125 C1.87892578 5.51326172 1.87892578 5.51326172 2.07421875 6.73828125 C2 9 2 9 0.51953125 10.79296875 C0.01808594 11.19128906 -0.48335937 11.58960938 -1 12 C-1.02687279 10.18757948 -1.04633715 8.37504767 -1.0625 6.5625 C-1.07410156 5.55316406 -1.08570313 4.54382813 -1.09765625 3.50390625 C-1 1 -1 1 0 0 Z " fill="#CB2B40" transform="translate(226,334)"/>
<path d="M0 0 C1.5 1.1875 1.5 1.1875 3 3 C3.1875 5.6875 3.1875 5.6875 3 8 C2.01 8 1.02 8 0 8 C-0.38063221 5.6739143 -0.71269945 3.33944736 -1 1 C-0.67 0.67 -0.34 0.34 0 0 Z " fill="#4E7B29" transform="translate(249,276)"/>
<path d="M0 0 C0.66 0 1.32 0 2 0 C2.66 2.64 3.32 5.28 4 8 C3.01 8.33 2.02 8.66 1 9 C-0.4783226 6.04335481 -0.06032783 3.25770263 0 0 Z " fill="#4D7E27" transform="translate(254,294)"/>
<path d="M0 0 C6.93 0.495 6.93 0.495 14 1 C13 3 13 3 10.9375 3.8125 C6.82258294 4.07515428 3.72363119 2.635441 0 1 C0 0.67 0 0.34 0 0 Z " fill="#86AB5D" transform="translate(265,236)"/>
<path d="M0 0 C3.96 0 7.92 0 12 0 C10.68 0.99 9.36 1.98 8 3 C8 3.33 8 3.66 8 4 C5.69 4 3.38 4 1 4 C2.32 3.67 3.64 3.34 5 3 C5 2.34 5 1.68 5 1 C3.35 1 1.7 1 0 1 C0 0.67 0 0.34 0 0 Z " fill="#77A349" transform="translate(265,231)"/>
<path d="M0 0 C0.6875 1.625 0.6875 1.625 1 4 C-0.4375 7.25 -0.4375 7.25 -2 10 C-2.33 10 -2.66 10 -3 10 C-3 7.69 -3 5.38 -3 3 C-2.01 2.67 -1.02 2.34 0 2 C0 1.34 0 0.68 0 0 Z " fill="#B42D40" transform="translate(317,354)"/>
<path d="M0 0 C1.11346788 2.80033839 1.03510273 3.90143703 0.00390625 6.796875 C-0.47175781 7.77140625 -0.94742187 8.7459375 -1.4375 9.75 C-1.91058594 10.73484375 -2.38367188 11.7196875 -2.87109375 12.734375 C-3.24363281 13.48203125 -3.61617188 14.2296875 -4 15 C-4.33 15 -4.66 15 -5 15 C-5.35286978 10.76556263 -4.5763408 9.26997101 -2 6 C-1.27648573 4.01985568 -0.59734611 2.02178685 0 0 Z " fill="#9A2338" transform="translate(378,346)"/>
<path d="M0 0 C0.66 0.33 1.32 0.66 2 1 C1.01 2.485 1.01 2.485 0 4 C-0.66 4 -1.32 4 -2 4 C-2.268125 4.61875 -2.53625 5.2375 -2.8125 5.875 C-4 8 -4 8 -7 10 C-5.6062718 5.56541027 -3.39417765 3.12621626 0 0 Z " fill="#D53246" transform="translate(236,316)"/>
<path d="M0 0 C0.99 0 1.98 0 3 0 C6.22265625 5.17578125 6.22265625 5.17578125 7 7 C6.67 7.99 6.34 8.98 6 10 C6 9.34 6 8.68 6 8 C5.01 7.67 4.02 7.34 3 7 C0 2.66666667 0 2.66666667 0 0 Z " fill="#4C5324" transform="translate(308,299)"/>
<path d="M0 0 C1.5625 1.625 1.5625 1.625 3 4 C2.6875 7.25 2.6875 7.25 2 10 C1.34 9.01 0.68 8.02 0 7 C-0.33 6.67 -0.66 6.34 -1 6 C-1.68268138 4.67479497 -2.3507041 3.34187818 -3 2 C-2.01 2 -1.02 2 0 2 C0 1.34 0 0.68 0 0 Z " fill="#578034" transform="translate(252,282)"/>
<path d="M0 0 C4.39450749 0.43945075 8.68330172 1.05572225 13 2 C13 2.33 13 2.66 13 3 C11.41705218 3.05437607 9.83355744 3.09296271 8.25 3.125 C7.36828125 3.14820313 6.4865625 3.17140625 5.578125 3.1953125 C2.8864142 2.99139502 1.30095026 2.36551721 -1 1 C-0.67 0.67 -0.34 0.34 0 0 Z " fill="#98B179" transform="translate(288,254)"/>
<path d="M0 0 C2.64 0.33 5.28 0.66 8 1 C8.33 2.32 8.66 3.64 9 5 C2.25 3.375 2.25 3.375 0 0 Z " fill="#8F2B3F" transform="translate(310,374)"/>
<path d="M0 0 C2.00720923 0.28674418 4.0085944 0.61866701 6 1 C5 4 5 4 2.9375 5.1875 C2.298125 5.455625 1.65875 5.72375 1 6 C0.34 4.35 -0.32 2.7 -1 1 C-0.67 0.67 -0.34 0.34 0 0 Z " fill="#972236" transform="translate(360,367)"/>
<path d="M0 0 C1.32 0.33 2.64 0.66 4 1 C1.3139714 2.79068573 -0.6626589 3.66055791 -3.6875 4.625 C-4.49574219 4.88539063 -5.30398437 5.14578125 -6.13671875 5.4140625 C-6.75160156 5.60742188 -7.36648437 5.80078125 -8 6 C-7.67 5.01 -7.34 4.02 -7 3 C-3.535 2.505 -3.535 2.505 0 2 C0 1.34 0 0.68 0 0 Z " fill="#E0EED6" transform="translate(228,215)"/>
<path d="M0 0 C0.99 0.99 1.98 1.98 3 3 C2.34 4.32 1.68 5.64 1 7 C0.01 7 -0.98 7 -2 7 C-1.125 2.25 -1.125 2.25 0 0 Z " fill="#7E1F2B" transform="translate(317,363)"/>
<path d="M0 0 C3.16115776 1.36983503 3.9927092 1.9890638 6 5 C5.67 5.66 5.34 6.32 5 7 C4.34 7 3.68 7 3 7 C0.70351351 4.4385343 0 3.52032428 0 0 Z " fill="#44721A" transform="translate(301,286)"/>
<path d="M0 0 C-0.33 0.66 -0.66 1.32 -1 2 C-3.3431213 1.74438677 -5.67843403 1.40729228 -8 1 C-8.33 0.34 -8.66 -0.32 -9 -1 C-5.38055101 -2.34053666 -3.42632833 -1.61798838 0 0 Z " fill="#9BB57B" transform="translate(265,253)"/>
<path d="M0 0 C0.66 0 1.32 0 2 0 C3.10844919 3.32534757 2.84454356 5.62182575 2 9 C0.05276405 6.07914607 -0.55175352 4.40667322 -1 1 C-0.67 0.67 -0.34 0.34 0 0 Z " fill="#BA3346" transform="translate(226,350)"/>
<path d="M0 0 C2.97 0.495 2.97 0.495 6 1 C5.01 1.33 4.02 1.66 3 2 C2.67 2.66 2.34 3.32 2 4 C-0.31 4 -2.62 4 -5 4 C-4.34 3.34 -3.68 2.68 -3 2 C-2.01 2 -1.02 2 0 2 C0 1.34 0 0.68 0 0 Z " fill="#CF3349" transform="translate(261,302)"/>
<path d="M0 0 C1.98 0 3.96 0 6 0 C4.35830472 2.02054804 2.69088222 4.02043058 1 6 C0.67 6 0.34 6 0 6 C0 4.02 0 2.04 0 0 Z " fill="#F9E2E4" transform="translate(228,316)"/>
<path d="M0 0 C2.31 0.33 4.62 0.66 7 1 C4.53721199 3.46278801 2.29323018 3.99771255 -1 5 C-1.33 4.34 -1.66 3.68 -2 3 C-1.34 3 -0.68 3 0 3 C0 2.01 0 1.02 0 0 Z " fill="#FAE4E8" transform="translate(245,304)"/>
<path d="M0 0 C2.88575819 0.39803561 3.82189513 0.79009069 5.75 3.0625 C6.1625 3.701875 6.575 4.34125 7 5 C3.89448334 5 2.64738916 4.4606285 0 3 C0 2.01 0 1.02 0 0 Z " fill="#567137" transform="translate(300,283)"/>
<path d="M0 0 C2.15377564 2.62198774 3.40072174 4.64404172 4 8 C2.68 7.67 1.36 7.34 0 7 C-1.125 2.25 -1.125 2.25 0 0 Z " fill="#5D853E" transform="translate(236,245)"/>
<path d="M0 0 C2.97 0.495 2.97 0.495 6 1 C6.33 1.99 6.66 2.98 7 4 C4.69 3.67 2.38 3.34 0 3 C0 2.01 0 1.02 0 0 Z " fill="#AB3B50" transform="translate(258,385)"/>
<path d="M0 0 C2.475 0.99 2.475 0.99 5 2 C5 3.98 5 5.96 5 8 C2.74754119 5.31158141 1.11786042 3.35358125 0 0 Z " fill="#5E3526" transform="translate(318,298)"/>
<path d="M0 0 C0.66 1.32 1.32 2.64 2 4 C1.01 5.32 0.02 6.64 -1 8 C-1.625 5.6875 -1.625 5.6875 -2 3 C-1.34 2.01 -0.68 1.02 0 0 Z " fill="#5F8440" transform="translate(242,258)"/>
<path d="M0 0 C2.3125 1.375 2.3125 1.375 4 3 C-0.455 3.495 -0.455 3.495 -5 4 C-5 3.34 -5 2.68 -5 2 C-2.75 0.8125 -2.75 0.8125 0 0 Z " fill="#91A873" transform="translate(318,250)"/>
<path d="M0 0 C2.97 1.98 2.97 1.98 6 4 C5.34 5.32 4.68 6.64 4 8 C1.84622436 5.37801226 0.59927826 3.35595828 0 0 Z " fill="#D8E9CB" transform="translate(235,241)"/>
<path d="M0 0 C2.31 0 4.62 0 7 0 C7 0.66 7 1.32 7 2 C7.66 2.33 8.32 2.66 9 3 C2.84765625 2.4140625 2.84765625 2.4140625 1 2 C0.67 1.34 0.34 0.68 0 0 Z " fill="#779D4D" transform="translate(223,224)"/>
<path d="M0 0 C1.65 0 3.3 0 5 0 C3.68 2.31 2.36 4.62 1 7 C0.67 7 0.34 7 0 7 C0 4.69 0 2.38 0 0 Z " fill="#CF6674" transform="translate(319,324)"/>
<path d="M0 0 C0.66 0 1.32 0 2 0 C1.67 1.32 1.34 2.64 1 4 C0.34 4 -0.32 4 -1 4 C-1.33 4.66 -1.66 5.32 -2 6 C-2.66 4.68 -3.32 3.36 -4 2 C-3.01 1.67 -2.02 1.34 -1 1 C-0.67 0.67 -0.34 0.34 0 0 Z " fill="#A81C31" transform="translate(308,304)"/>
<path d="M0 0 C1.65 0 3.3 0 5 0 C5 2.64 5 5.28 5 8 C4.67 8 4.34 8 4 8 C3.67 6.35 3.34 4.7 3 3 C2.01 2.67 1.02 2.34 0 2 C0 1.34 0 0.68 0 0 Z " fill="#8B323A" transform="translate(319,297)"/>
<path d="M0 0 C3.36720387 1.39332574 4.9859524 2.9789286 7 6 C3.75728494 5.4409112 2.06942576 4.5867822 0 2 C0 1.34 0 0.68 0 0 Z " fill="#4B6C2F" transform="translate(306,288)"/>
<path d="M0 0 C2.625 1.4375 2.625 1.4375 5 3 C4.67 3.66 4.34 4.32 4 5 C2.125 4.6875 2.125 4.6875 0 4 C-0.66 3.01 -1.32 2.02 -2 1 C-1.34 0.67 -0.68 0.34 0 0 Z " fill="#385E14" transform="translate(332,234)"/>
<path d="M0 0 C0.33 0.66 0.66 1.32 1 2 C1.66 2 2.32 2 3 2 C3 2.66 3 3.32 3 4 C3.99 4.33 4.98 4.66 6 5 C3.69 5 1.38 5 -1 5 C-0.67 3.35 -0.34 1.7 0 0 Z " fill="#477122" transform="translate(274,225)"/>
<path d="M0 0 C2.97 0.495 2.97 0.495 6 1 C5.67 1.66 5.34 2.32 5 3 C2.69 3 0.38 3 -2 3 C-1.34 2.01 -0.68 1.02 0 0 Z " fill="#4E6D2E" transform="translate(295,212)"/>
<path d="M0 0 C4.16138263 -0.08159574 7.9472484 0.01751476 12 1 C9 3 9 3 6.73828125 2.7578125 C5.93777344 2.54898438 5.13726562 2.34015625 4.3125 2.125 C3.50425781 1.92132813 2.69601563 1.71765625 1.86328125 1.5078125 C1.24839844 1.34023437 0.63351563 1.17265625 0 1 C0 0.67 0 0.34 0 0 Z " fill="#5B7F3D" transform="translate(250,211)"/>
</svg>
